<svg width="1200" height="400" viewBox="0 0 1200 400" fill="none" xmlns="http://www.w3.org/2000/svg">
  <!-- Background Gradient -->
  <defs>
    <linearGradient id="bgGrad" x1="0" y1="0" x2="1200" y2="400" gradientUnits="userSpaceOnUse">
      <stop offset="0%" stop-color="#0F172A"/>
      <stop offset="60%" stop-color="#1E293B"/>
      <stop offset="100%" stop-color="#020617"/>
    </linearGradient>
    <linearGradient id="shopifyGreen" x1="0" y1="0" x2="1" y2="0">
      <stop offset="0%" stop-color="#95BF47"/>
      <stop offset="100%" stop-color="#5E8E3E"/>
    </linearGradient>
    <linearGradient id="cyanGlow" x1="0" y1="0" x2="1" y2="1">
      <stop offset="0%" stop-color="#06B6D4"/>
      <stop offset="100%" stop-color="#3B82F6"/>
    </linearGradient>
    <linearGradient id="accentUpwork" x1="0" y1="0" x2="1" y2="0">
      <stop offset="0%" stop-color="#14A800"/>
      <stop offset="100%" stop-color="#10B981"/>
    </linearGradient>
    <filter id="glow" x="-20%" y="-20%" width="140%" height="140%">
      <feGaussianBlur stdDeviation="15" result="blur" />
      <feComposite in="SourceGraphic" in2="blur" operator="over" />
    </filter>
  </defs>

  <rect width="1200" height="400" rx="16" fill="url(#bgGrad)"/>

  <!-- Decorative Ambient Glow Circles -->
  <circle cx="1100" cy="80" r="180" fill="#95BF47" opacity="0.12" filter="url(#glow)" />
  <circle cx="100" cy="350" r="150" fill="#06B6D4" opacity="0.1" filter="url(#glow)" />

  <!-- Grid Patterns -->
  <g opacity="0.05" stroke="#FFFFFF" stroke-width="1">
    <path d="M0 50H1200 M0 100H1200 M0 150H1200 M0 200H1200 M0 250H1200 M0 300H1200 M0 350H1200" />
    <path d="M150 0V400 M300 0V400 M450 0V400 M600 0V400 M750 0V400 M900 0V400 M1050 0V400" />
  </g>

  <!-- Left Side Text Content -->
  <!-- Top Tag Line -->
  <rect x="70" y="55" width="230" height="32" rx="16" fill="#95BF47" fill-opacity="0.15" stroke="#95BF47" stroke-width="1.5"/>
  <text x="85" y="76" font-family="system-ui, -apple-system, sans-serif" font-size="14" font-weight="700" fill="#95BF47" letter-spacing="1">
    🛍️ CERTIFIED SHOPIFY PARTNER
  </text>

  <!-- Main Name Title -->
  <text x="70" y="145" font-family="system-ui, -apple-system, sans-serif" font-size="52" font-weight="900" fill="#FFFFFF" letter-spacing="-1">
    SAYANTHAN S.
  </text>

  <!-- Subtitle -->
  <text x="70" y="185" font-family="system-ui, -apple-system, sans-serif" font-size="22" font-weight="600" fill="#38BDF8">
    Senior Shopify Developer &amp; Liquid Specialist
  </text>

  <text x="70" y="215" font-family="system-ui, -apple-system, sans-serif" font-size="16" font-weight="400" fill="#94A3B8">
    5+ Years Experience • Sri Lanka • Core Web Vitals 90+ • High-Converting OS 2.0 Themes
  </text>

  <!-- Pill Skill Badges -->
  <g transform="translate(70, 245)">
    <!-- Badge 1 -->
    <rect x="0" y="0" width="130" height="34" rx="8" fill="#1E293B" stroke="#334155" stroke-width="1"/>
    <text x="15" y="22" font-family="sans-serif" font-size="13" font-weight="600" fill="#E2E8F0">Shopify Plus</text>

    <!-- Badge 2 -->
    <rect x="142" y="0" width="145" height="34" rx="8" fill="#1E293B" stroke="#334155" stroke-width="1"/>
    <text x="157" y="22" font-family="sans-serif" font-size="13" font-weight="600" fill="#95BF47">Custom Liquid</text>

    <!-- Badge 3 -->
    <rect x="299" y="0" width="155" height="34" rx="8" fill="#1E293B" stroke="#334155" stroke-width="1"/>
    <text x="314" y="22" font-family="sans-serif" font-size="13" font-weight="600" fill="#38BDF8">JavaScript (ES6+)</text>

    <!-- Badge 4 -->
    <rect x="466" y="0" width="165" height="34" rx="8" fill="#1E293B" stroke="#334155" stroke-width="1"/>
    <text x="481" y="22" font-family="sans-serif" font-size="13" font-weight="600" fill="#F43F5E">Speed Optimization</text>
  </g>

  <!-- Bottom CTA Row -->
  <g transform="translate(70, 315)">
    <!-- Upwork Button -->
    <rect x="0" y="0" width="220" height="44" rx="10" fill="url(#accentUpwork)"/>
    <text x="30" y="27" font-family="sans-serif" font-size="15" font-weight="700" fill="#FFFFFF">Available on Upwork 🚀</text>

    <!-- Contact Info -->
    <text x="245" y="27" font-family="sans-serif" font-size="14" font-weight="500" fill="#CBD5E1">
      ✉️ Open for Custom Shopify Projects &amp; Retainers
    </text>
  </g>

  <!-- Right Side Code Window Illustration -->
  <g transform="translate(760, 55)">
    <!-- Window Frame -->
    <rect width="370" height="290" rx="12" fill="#090D16" stroke="#334155" stroke-width="1.5"/>
    
    <!-- Top Window Dots -->
    <circle cx="20" cy="20" r="6" fill="#EF4444" />
    <circle cx="38" cy="20" r="6" fill="#F59E0B" />
    <circle cx="56" cy="20" r="6" fill="#10B981" />
    <text x="140" y="24" font-family="monospace" font-size="12" fill="#64748B">shopify-theme.liquid</text>
    <line x1="0" y1="38" x2="370" y2="38" stroke="#1E293B" stroke-width="1"/>

    <!-- Code Snippet Lines -->
    <text x="20" y="70" font-family="monospace" font-size="13" fill="#F43F5E">{% assign <t fill="#CBD5E1">store_speed = </t><t fill="#95BF47">98</t> %}</text>
    <text x="20" y="98" font-family="monospace" font-size="13" fill="#F43F5E">{% if <t fill="#CBD5E1">merchant.goal == </t><t fill="#38BDF8">'High Sales'</t> %}</text>
    <text x="40" y="126" font-family="monospace" font-size="13" fill="#64748B">&lt;!-- OS 2.0 AJAX Cart Drawer Engine --&gt;</text>
    <text x="40" y="154" font-family="monospace" font-size="13" fill="#38BDF8">&lt;div <t fill="#95BF47">class=</t><t fill="#F59E0B">"sticky-cart-drawer"</t>&gt;</text>
    <text x="60" y="182" font-family="monospace" font-size="13" fill="#CBD5E1">{% render <t fill="#F43F5E">'custom-upsell-grid'</t> %}</text>
    <text x="40" y="210" font-family="monospace" font-size="13" fill="#38BDF8">&lt;/div&gt;</text>
    <text x="20" y="238" font-family="monospace" font-size="13" fill="#F43F5E">{% endif %}</text>
    <text x="20" y="268" font-family="monospace" font-size="13" fill="#10B981">✓ Core Web Vitals 90+ Verified</text>
  </g>
</svg>
